<svg data-v-423bf9ae="" xmlns="http://www.w3.org/2000/svg" viewBox="0 0 351.8995411134694 60" class="font"><!----><!----><!----><g data-v-423bf9ae="" id="a105ccca-f446-4ea0-be6b-d9dff93c552f" fill="white" transform="matrix(4.709576222757963,0,0,4.709576222757963,-0.6593425533741026,-15.164835810441275)"><path d="M4.72 3.64Q6.09 3.64 7.06 3.96Q8.02 4.28 8.97 5.11L8.97 5.11L7.55 7.14Q6.92 6.55 6.27 6.29Q5.61 6.03 4.82 6.03L4.82 6.03Q4.33 6.03 4.03 6.18Q3.74 6.33 3.74 6.57L3.74 6.57Q3.74 6.72 4.02 6.80Q4.30 6.89 5.00 7.01L5.00 7.01Q7.03 7.38 7.92 8.11Q8.81 8.85 8.81 10.18L8.81 10.18Q8.81 11.13 8.26 11.80Q7.71 12.47 6.78 12.82Q5.84 13.16 4.68 13.16L4.68 13.16Q3.04 13.16 2.06 12.85Q1.08 12.54 0.14 11.86L0.14 11.86L1.54 9.65Q2.13 10.22 2.83 10.49Q3.53 10.77 4.44 10.77L4.44 10.77Q5.46 10.77 5.46 10.35L5.46 10.35Q5.46 10.12 5.14 10.01Q4.82 9.90 4.09 9.77L4.09 9.77Q3.02 9.58 2.27 9.32Q1.53 9.07 0.96 8.47Q0.39 7.87 0.39 6.82L0.39 6.82Q0.39 5.87 0.90 5.15Q1.40 4.44 2.37 4.04Q3.35 3.64 4.72 3.64L4.72 3.64ZM14.99 5.88Q16.03 5.88 16.61 6.50Q17.19 7.11 17.19 8.23L17.19 8.23L17.19 13.02L13.97 13.02L13.97 9.07Q13.97 8.61 13.86 8.43Q13.75 8.26 13.48 8.26L13.48 8.26Q13.13 8.26 12.97 8.53Q12.81 8.79 12.81 9.35L12.81 9.35L12.81 13.02L9.59 13.02L9.59 6.02L12.49 6.02L12.56 7.55Q12.87 6.73 13.48 6.31Q14.10 5.88 14.99 5.88L14.99 5.88ZM25.73 11.30Q25.97 11.30 26.08 11.24L26.08 11.24L25.83 12.88Q25.35 13.16 24.79 13.16L24.79 13.16Q23.94 13.16 23.37 12.86Q22.79 12.56 22.60 11.98L22.60 11.98Q22.27 12.53 21.65 12.84Q21.03 13.16 20.10 13.16L20.10 13.16Q19.01 13.16 18.48 12.73Q17.95 12.31 17.95 11.49L17.95 11.49Q17.95 10.61 18.58 10.09Q19.21 9.56 20.68 9.24L20.68 9.24L22.06 8.93L22.06 8.65Q22.06 8.33 21.90 8.15Q21.74 7.97 21.43 7.97L21.43 7.97Q21.10 7.97 20.90 8.15Q20.71 8.34 20.69 8.82L20.69 8.82L18.03 8.41Q18.14 7.21 19.04 6.54Q19.94 5.88 21.62 5.88L21.62 5.88Q23.48 5.88 24.37 6.59Q25.26 7.31 25.26 8.76L25.26 8.76L25.26 10.72Q25.26 11.30 25.73 11.30L25.73 11.30ZM21.46 11.41Q21.73 11.41 21.90 11.23Q22.06 11.06 22.06 10.72L22.06 10.72L22.06 10.05L21.60 10.19Q21.31 10.28 21.14 10.46Q20.97 10.65 20.97 10.92L20.97 10.92Q20.97 11.16 21.11 11.28Q21.25 11.41 21.46 11.41L21.46 11.41ZM31.71 5.88Q33.00 5.88 33.69 6.82Q34.38 7.76 34.38 9.48L34.38 9.48Q34.38 11.23 33.68 12.19Q32.97 13.16 31.70 13.16L31.70 13.16Q30.98 13.16 30.49 12.81Q30.00 12.46 29.72 11.84L29.72 11.84L29.72 15.96L26.50 15.96L26.50 6.02L29.33 6.02L29.41 7.66Q29.68 6.83 30.27 6.36Q30.87 5.88 31.71 5.88L31.71 5.88ZM30.41 10.89Q30.77 10.89 30.95 10.60Q31.14 10.30 31.14 9.52L31.14 9.52Q31.14 8.74 30.95 8.43Q30.77 8.13 30.41 8.13L30.41 8.13Q30.07 8.13 29.90 8.45Q29.72 8.76 29.72 9.46L29.72 9.46L29.72 9.58Q29.72 10.25 29.89 10.57Q30.06 10.89 30.41 10.89L30.41 10.89ZM40.70 9.55L39.98 13.02L36.40 13.02L33.78 3.78L37.30 3.78L38.37 10.46L39.68 3.78L42.48 3.78L43.85 10.42L44.90 3.78L48.29 3.78L45.65 13.02L42.20 13.02L41.47 9.55L41.10 7.18L41.06 7.18L40.70 9.55ZM51.45 5.88Q53.31 5.88 54.33 6.83Q55.36 7.78 55.36 9.52L55.36 9.52Q55.36 11.26 54.33 12.21Q53.31 13.16 51.45 13.16L51.45 13.16Q49.59 13.16 48.57 12.21Q47.54 11.26 47.54 9.52L47.54 9.52Q47.54 7.78 48.57 6.83Q49.59 5.88 51.45 5.88L51.45 5.88ZM51.45 8.05Q51.17 8.05 51.03 8.18Q50.89 8.30 50.83 8.61Q50.78 8.92 50.78 9.52L50.78 9.52Q50.78 10.12 50.83 10.43Q50.89 10.74 51.03 10.86Q51.17 10.99 51.45 10.99L51.45 10.99Q51.73 10.99 51.87 10.86Q52.01 10.74 52.07 10.43Q52.12 10.12 52.12 9.52L52.12 9.52Q52.12 8.92 52.07 8.61Q52.01 8.30 51.87 8.18Q51.73 8.05 51.45 8.05L51.45 8.05ZM61.21 5.88Q61.70 5.88 61.94 6.05L61.94 6.05L61.67 8.68Q61.54 8.58 61.31 8.52Q61.07 8.46 60.79 8.46L60.79 8.46Q60.14 8.46 59.77 8.76Q59.40 9.07 59.40 9.66L59.40 9.66L59.40 13.02L56.18 13.02L56.18 6.02L59.08 6.02L59.15 7.77Q59.65 5.88 61.21 5.88L61.21 5.88ZM65.62 3.22L65.62 10.23Q65.62 10.67 65.74 10.86Q65.87 11.05 66.19 11.05L66.19 11.05Q66.44 11.05 66.70 10.98L66.70 10.98L66.56 12.71Q66.30 12.91 65.80 13.03Q65.30 13.16 64.82 13.16L64.82 13.16Q63.52 13.16 62.96 12.60Q62.40 12.04 62.40 10.72L62.40 10.72L62.40 3.22L65.62 3.22ZM71.64 3.22L74.86 3.22L74.86 13.02L71.96 13.02L71.86 11.63Q71.55 12.35 70.99 12.75Q70.43 13.16 69.65 13.16L69.65 13.16Q68.36 13.16 67.67 12.22Q66.98 11.28 66.98 9.56L66.98 9.56Q66.98 7.81 67.68 6.85Q68.39 5.88 69.66 5.88L69.66 5.88Q70.38 5.88 70.87 6.23Q71.36 6.58 71.64 7.20L71.64 7.20L71.64 3.22ZM70.95 10.91Q71.29 10.91 71.46 10.59Q71.64 10.28 71.64 9.58L71.64 9.58L71.64 9.46Q71.64 8.79 71.47 8.47Q71.30 8.15 70.95 8.15L70.95 8.15Q70.59 8.15 70.41 8.44Q70.22 8.74 70.22 9.52L70.22 9.52Q70.22 10.30 70.41 10.61Q70.59 10.91 70.95 10.91L70.95 10.91Z"></path></g><!----><!----></svg>